<svg xmlns="http://www.w3.org/2000/svg" xmlns:xlink="http://www.w3.org/1999/xlink" width="1080" zoomAndPan="magnify" viewBox="0 0 810 809.999993" height="1080" preserveAspectRatio="xMidYMid meet" version="1.0"><defs><clipPath id="id1"><path d="M 271.734375 675 L 595.734375 675 L 595.734375 809.886719 L 271.734375 809.886719 Z M 271.734375 675 " clip-rule="nonzero"/></clipPath><clipPath id="id2"><path d="M 486 691 L 810 691 L 810 809.664062 L 486 809.664062 Z M 486 691 " clip-rule="nonzero"/></clipPath></defs><g clip-path="url(#id1)"><path fill="#459653" d="M 595.605469 809.871094 C 585.234375 805.65625 576.511719 796.5 570.152344 786.335938 C 562.113281 773.488281 556.933594 758.78125 549.773438 745.328125 C 535.582031 718.671875 511.582031 696.914062 484.691406 684.082031 C 456.015625 670.394531 430.132812 673.046875 402.40625 690.0625 C 382.15625 702.488281 365.40625 719.902344 348.902344 737.121094 C 334.582031 752.058594 320.261719 766.996094 305.941406 781.933594 C 296.148438 792.144531 285.222656 804.015625 271.894531 809.871094 Z M 595.605469 809.871094 " fill-opacity="1" fill-rule="nonzero"/></g><g clip-path="url(#id2)"><path fill="#337a42" d="M 808.671875 809.640625 C 809.660156 806.964844 809.6875 804.027344 807.820312 801.660156 C 807.582031 801.355469 790.839844 796.121094 792.785156 795.519531 C 800.832031 792.777344 799.253906 786.257812 791.890625 784.050781 C 786.476562 782.425781 780.726562 785.832031 775.726562 787.101562 C 776.472656 784.238281 776.980469 780.449219 775.847656 777.601562 C 774.621094 774.515625 770.449219 772.40625 767.796875 774.429688 C 766.070312 775.746094 765.578125 778.277344 763.746094 779.441406 C 762.007812 780.542969 759.730469 780.027344 757.738281 779.472656 C 754.808594 778.65625 751.878906 777.839844 748.945312 777.023438 C 750.78125 775.179688 752.542969 773.257812 754.21875 771.265625 C 754.714844 770.675781 749.988281 769.191406 749.808594 768.910156 C 747.574219 765.480469 751.167969 766.742188 751.714844 764.285156 C 752.472656 760.859375 757.996094 756.128906 755.945312 752.335938 C 753.117188 747.105469 739.785156 749.558594 735.617188 751.257812 C 736.332031 744.714844 732.308594 737.9375 726.1875 735.378906 C 724.863281 734.828125 723.398438 734.453125 721.996094 734.761719 C 720.542969 735.082031 719.34375 736.085938 717.957031 736.617188 C 716.566406 737.148438 714.632812 736.972656 714.050781 735.617188 C 714.050781 731.511719 707.6875 723.4375 703.730469 723.519531 C 704.851562 717.253906 705.984375 712.597656 703.449219 706.507812 C 700.554688 699.550781 691.507812 695.773438 685.925781 703.160156 C 683.722656 699.152344 681.324219 694.9375 677.316406 692.679688 C 673.308594 690.421875 667.21875 691.152344 665.328125 695.316406 C 665.054688 695.921875 664.863281 696.597656 664.371094 697.050781 C 661.882812 699.359375 659.007812 693.9375 656.5 695.023438 C 652.472656 696.769531 656.722656 702.140625 653.378906 704.6875 C 651.054688 706.457031 646.878906 703.371094 644.289062 703.414062 C 640.308594 703.484375 632.589844 706.496094 630.117188 709.730469 C 626.988281 713.828125 630.65625 721.367188 626.238281 724.070312 C 623.914062 725.496094 620.410156 724.539062 618.574219 726.542969 C 616.339844 728.980469 618.839844 732.679688 619.398438 735.925781 C 621.863281 750.261719 592 744.328125 591.339844 759.378906 C 591.167969 763.273438 593.730469 767.039062 592.980469 770.867188 C 592.46875 773.492188 590.269531 775.71875 587.628906 776.285156 C 584.984375 776.851562 582.054688 775.726562 580.484375 773.546875 C 578.601562 775.726562 576.71875 777.90625 574.835938 780.085938 C 573.3125 778.113281 572.46875 775.722656 571.304688 773.523438 C 568.539062 768.316406 564.078125 767.410156 558.621094 768.980469 C 549.996094 771.457031 556.226562 772.734375 551.714844 778 C 550.28125 779.671875 547.414062 778.867188 545.847656 777.3125 C 544.277344 775.761719 543.304688 773.636719 541.511719 772.34375 C 538.625 770.269531 533.988281 771.316406 532.300781 774.425781 C 531.632812 775.65625 531.753906 778.511719 531.578125 780.828125 C 531.460938 782.347656 531.21875 783.636719 530.539062 784.078125 C 528.886719 785.15625 526.59375 782.464844 525.613281 783.058594 C 519.34375 786.871094 508.738281 787.25 504.140625 793.5625 C 502.351562 796.019531 502.347656 800.019531 504.9375 801.628906 C 499.59375 798.304688 486.359375 803.925781 486.679688 809.640625 Z M 808.671875 809.640625 " fill-opacity="1" fill-rule="nonzero"/></g><path fill="#337a42" d="M 322.023438 810.207031 C 323.175781 802.132812 299.722656 790.609375 298.730469 784.660156 C 298.421875 782.78125 299.117188 780.902344 299.457031 779.023438 C 299.792969 777.148438 299.628906 774.914062 298.105469 773.773438 C 296.9375 772.898438 295.34375 772.953125 293.890625 773.042969 C 289.652344 773.304688 284.726562 773.976562 282.59375 777.660156 C 281.324219 779.859375 281.1875 782.957031 278.96875 784.191406 C 276.066406 784.585938 273.457031 782.445312 271.527344 780.230469 C 269.597656 778.019531 267.746094 775.464844 264.964844 774.542969 C 262.429688 773.703125 258.644531 773.582031 258.476562 770.910156 C 258.320312 768.410156 262.105469 766.761719 261.507812 764.332031 C 254.355469 761.117188 245.496094 760.28125 244.605469 750.363281 C 244.484375 749.023438 244.550781 747.605469 243.910156 746.425781 C 242.410156 743.65625 238.394531 744.015625 235.339844 744.765625 C 237.351562 740.566406 234.695312 734.84375 230.199219 733.6875 C 224.5 732.222656 224.320312 737.507812 220.648438 738.773438 C 216.386719 740.242188 213.300781 735.898438 208.546875 737.261719 C 206.277344 737.910156 204.675781 740.949219 206.203125 742.753906 C 206.640625 743.273438 207.324219 743.742188 207.269531 744.425781 C 207.238281 744.832031 206.933594 745.160156 206.632812 745.4375 C 205.316406 746.65625 203.738281 747.59375 202.039062 748.160156 C 197.910156 749.546875 193.199219 748.667969 189.554688 746.277344 C 187.855469 746.820312 186.011719 747.472656 185.085938 749 C 183.785156 751.140625 184.871094 753.855469 185.386719 756.308594 C 186.339844 760.824219 184.996094 765.269531 182.441406 768.882812 C 179.613281 767.363281 176.308594 766.726562 173.144531 767.351562 C 171.539062 768.582031 171.34375 770.898438 171.363281 772.921875 C 171.382812 774.949219 171.390625 777.214844 169.992188 778.675781 C 168.59375 780.136719 165.34375 779.4375 165.550781 777.421875 C 164.609375 778.554688 163.671875 779.691406 162.730469 780.828125 C 159.648438 783.027344 155.023438 776.59375 152.292969 779.21875 C 151.691406 779.800781 151.46875 780.664062 151.085938 781.40625 C 148.523438 786.390625 139.984375 784.648438 135.132812 781.863281 C 132.929688 783.433594 130.117188 784.121094 127.441406 783.75 C 128.636719 782.355469 127.964844 779.832031 126.238281 779.21875 C 125.34375 778.832031 124.453125 778.441406 123.558594 778.050781 C 123.046875 777.3125 122.246094 776.792969 121.15625 776.710938 C 120.707031 775.261719 119.863281 773.933594 118.664062 772.890625 C 118.21875 772.503906 117.757812 772.191406 117.28125 771.933594 C 118.457031 767.90625 118.890625 763.664062 118.515625 759.488281 C 117.152344 759.445312 115.792969 759.402344 114.429688 759.363281 C 111.003906 757.738281 108.449219 754.640625 104.71875 753.964844 C 104.851562 753.378906 104.960938 752.796875 104.953125 752.230469 C 104.90625 748.773438 100.164062 747.117188 97.050781 748.605469 C 93.96875 750.074219 92.183594 753.277344 90.40625 756.203125 C 89.234375 756.632812 88.210938 757.597656 87.742188 758.742188 C 85.605469 759.75 83.851562 761.605469 82.867188 763.917969 C 80.257812 763.765625 78.210938 766.441406 78.902344 769.023438 C 79.058594 769.609375 78.75 769.621094 78.289062 769.738281 C 77.351562 769.980469 76.578125 770.65625 76.066406 771.507812 C 74.863281 771.421875 73.609375 771.65625 72.398438 772.316406 C 69.28125 774.023438 68.171875 777.800781 69.222656 780.996094 C 69.136719 780.96875 69.050781 780.945312 68.964844 780.917969 L 57.582031 777.363281 C 54.089844 776.273438 48.898438 776.121094 48.234375 779.726562 C 43.574219 778.824219 39.402344 775.652344 37.273438 771.390625 C 29.359375 772.714844 23.160156 780.730469 23.851562 788.746094 C 23.820312 788.730469 23.792969 788.710938 23.761719 788.695312 C 15.355469 783.695312 6.636719 794.304688 3.710938 801.132812 C 3.0625 802.644531 1.082031 807.695312 0.8125 810.207031 Z M 322.023438 810.207031 " fill-opacity="1" fill-rule="nonzero"/></svg>